<svg width="60" height="55" viewBox="0 0 60 55" fill="none" xmlns="http://www.w3.org/2000/svg">
<path d="M35.9137 23.1427C35.3902 22.6116 34.6803 22.3132 33.94 22.3132C33.1997 22.3132 32.4898 22.6116 31.9663 23.1427L29.9926 25.1431C28.9396 26.1753 27.5292 26.7465 26.0653 26.7335C24.6013 26.7206 23.201 26.1247 22.1658 25.074C21.1306 24.0234 20.5434 22.6021 20.5307 21.1163C20.5179 19.6306 21.0807 18.1991 22.0977 17.1304L37.8148 1.17306C41.5359 0.314068 45.4291 0.667588 48.9409 2.18335C52.4526 3.69912 55.4041 6.29997 57.3757 9.61609C59.3473 12.9322 60.2386 16.7948 59.923 20.6546C59.6073 24.5144 58.1006 28.1749 55.6173 31.1157L49.7325 37.1649L35.9137 23.1427ZM5.31704 6.10873C8.20496 3.17595 11.9835 1.31806 16.0411 0.835745C20.0988 0.35343 24.198 1.27491 27.6755 3.45106L18.1475 13.1241C16.0839 15.2143 14.9076 18.0407 14.87 20.9995C14.8323 23.9582 15.9362 26.8146 17.9459 28.9582C19.9556 31.1019 22.7117 32.3628 25.6252 32.4716C28.5387 32.5804 31.3785 31.5284 33.538 29.5404L33.94 29.1522L45.785 41.1712L33.94 53.1931C32.893 54.2554 31.4731 54.8522 29.9926 54.8522C28.5121 54.8522 27.0922 54.2554 26.0452 53.1931L5.31425 32.1527C1.91158 28.699 0 24.0149 0 19.1307C0 14.2466 1.91437 9.56248 5.31704 6.10873Z" fill="#24ACE7"/>
</svg>
