<svg width="61" height="60" viewBox="0 0 61 60" fill="none" xmlns="http://www.w3.org/2000/svg">
<path fill-rule="evenodd" clip-rule="evenodd" d="M0.390625 30.03C0.390625 13.5209 13.7739 0.137695 30.2829 0.137695C46.792 0.137695 60.1753 13.5209 60.1753 30.03C60.1753 46.5391 46.792 59.9223 30.2829 59.9223C13.7739 59.9223 0.390625 46.5391 0.390625 30.03ZM30.2829 15.0839C38.5033 15.0839 45.2291 21.8096 45.2291 30.03C45.2291 37.5031 39.8111 43.8552 32.338 44.9762V34.327H35.8878L36.6351 30.03H32.5249V27.2276C32.5249 26.1067 33.0854 24.9857 34.9536 24.9857H36.8219V21.2491C36.8219 21.2491 35.1405 20.8755 33.459 20.8755C30.0961 20.8755 27.8542 22.9306 27.8542 26.6671V30.03H24.1177V34.327H27.8542V44.7894C20.7548 43.6684 15.3368 37.5031 15.3368 30.03C15.3368 21.8096 22.0626 15.0839 30.2829 15.0839Z" fill="white"/>
</svg>
