<svg width="61" height="61" viewBox="0 0 61 61" fill="none" xmlns="http://www.w3.org/2000/svg">
<path fill-rule="evenodd" clip-rule="evenodd" d="M0.513702 30.447C0.513702 13.938 13.897 0.554718 30.406 0.554718C46.9151 0.554718 60.2984 13.938 60.2984 30.447C60.2984 46.9561 46.9151 60.3394 30.406 60.3394C13.897 60.3394 0.513702 46.9561 0.513702 30.447ZM30.406 15.5009C38.6264 15.5009 45.3522 22.2267 45.3522 30.447C45.3522 37.9201 39.9342 44.2722 32.4611 45.3932V34.7441H36.0108L36.7581 30.447H32.648V27.6446C32.648 26.5237 33.2084 25.4027 35.0767 25.4027H36.945V21.6662C36.945 21.6662 35.2635 21.2925 33.5821 21.2925C30.2192 21.2925 27.9773 23.3476 27.9773 27.0842V30.447H24.2407V34.7441H27.9773V45.2064C20.8778 44.0854 15.4599 37.9201 15.4599 30.447C15.4599 22.2267 22.1856 15.5009 30.406 15.5009Z" fill="#333333"/>
</svg>
