<svg width="147" height="135" viewBox="0 0 147 135" fill="none" xmlns="http://www.w3.org/2000/svg">
<path fill-rule="evenodd" clip-rule="evenodd" d="M133.323 54.0172L138.633 58.2686C139.691 59.0925 141.03 59.4664 142.361 59.3094C143.692 59.1523 144.908 58.4769 145.744 57.4295C146.581 56.3822 146.971 55.0474 146.829 53.7145C146.688 52.3815 146.027 51.158 144.99 50.3091L89.8105 6.16539C85.2943 2.55147 79.6825 0.58252 73.8983 0.58252C68.1142 0.58252 62.5024 2.55147 57.9862 6.16539L2.80652 50.3091C1.75103 51.153 1.07399 52.3816 0.924335 53.7246C0.774684 55.0676 1.16468 56.4151 2.00853 57.4706C2.85239 58.5261 4.08097 59.2031 5.424 59.3528C6.76704 59.5024 8.11452 59.1125 9.17001 58.2686L14.474 54.0172V123.9H5.98487C4.63398 123.9 3.33843 124.437 2.38321 125.392C1.42799 126.347 0.891357 127.643 0.891357 128.994C0.891357 130.345 1.42799 131.64 2.38321 132.595C3.33843 133.551 4.63398 134.087 5.98487 134.087H141.812C143.163 134.087 144.458 133.551 145.413 132.595C146.369 131.64 146.905 130.345 146.905 128.994C146.905 127.643 146.369 126.347 145.413 125.392C144.458 124.437 143.163 123.9 141.812 123.9H133.323V54.0172ZM55.2221 44.1018C55.2221 39.1486 57.1898 34.3982 60.6923 30.8958C64.1947 27.3933 68.9451 25.4256 73.8983 25.4256C78.8516 25.4256 83.6019 27.3933 87.1044 30.8958C90.6069 34.3982 92.5745 39.1486 92.5745 44.1018C92.5745 49.0551 90.6069 53.8054 87.1044 57.3079C83.6019 60.8104 78.8516 62.778 73.8983 62.778C68.9451 62.778 64.1947 60.8104 60.6923 57.3079C57.1898 53.8054 55.2221 49.0551 55.2221 44.1018ZM74.2379 69.5694C78.7473 69.5694 82.6388 69.5694 85.756 69.9905C89.0974 70.4387 92.2961 71.4506 94.8904 74.0449C97.4847 76.6392 98.4966 79.8379 98.9448 83.1792C99.3387 86.0995 99.3659 89.6989 99.3659 93.862V123.9H89.1789C91.386 124.199 88.785 123.513 89.1789 123.9H75.7724H58.9438H58.6178H48.4308V94.6974C48.4308 90.1879 48.4308 86.2965 48.8518 83.1792C49.3001 79.8379 50.312 76.6392 52.9063 74.0449C55.5006 71.4506 58.7061 70.4387 62.0406 69.9905C65.1579 69.5694 69.0493 69.5694 73.5656 69.5694H74.2379Z" fill="white"/>
</svg>
