<svg width="61" height="61" viewBox="0 0 61 61" fill="none" xmlns="http://www.w3.org/2000/svg">
<path fill-rule="evenodd" clip-rule="evenodd" d="M30.406 60.1431C46.9475 60.1431 60.357 46.7336 60.357 30.1921C60.357 13.6507 46.9475 0.241211 30.406 0.241211C13.8646 0.241211 0.455109 13.6507 0.455109 30.1921C0.455109 46.7336 13.8646 60.1431 30.406 60.1431ZM24.208 15.2422C25.8117 15.1708 26.3249 15.152 30.4064 15.152H30.4027C34.4898 15.152 34.9993 15.1708 36.6049 15.2422C38.2048 15.3155 39.2989 15.5693 40.2577 15.9416C41.262 16.3182 42.1713 16.9105 42.9217 17.6768C43.688 18.4272 44.2804 19.3366 44.657 20.3408C45.0274 21.2959 45.2812 22.3901 45.3564 23.99C45.4278 25.5955 45.4466 26.1069 45.4466 30.1921C45.4466 34.2774 45.4278 34.7888 45.3564 36.3924C45.2812 37.9942 45.0274 39.0865 44.657 40.0434C44.2716 41.0323 43.7583 41.8708 42.9217 42.7074C42.1719 43.4735 41.2632 44.0658 40.2596 44.4427C39.3027 44.8149 38.2066 45.0669 36.6067 45.1421C35.0012 45.2135 34.4917 45.2323 30.4064 45.2323C26.3211 45.2323 25.8098 45.2135 24.2042 45.1421C22.6025 45.0687 21.5121 44.8149 20.5532 44.4427C19.5644 44.0592 18.7259 43.544 17.8911 42.7074C17.0545 41.8708 16.5413 41.0323 16.1559 40.0434C15.7836 39.0865 15.5317 37.9942 15.4565 36.3924C15.3851 34.7888 15.3663 34.2774 15.3663 30.194C15.3663 26.1069 15.3851 25.5955 15.4565 23.9881C15.5298 22.3901 15.7836 21.2959 16.1559 20.3408C16.5325 19.3366 17.1248 18.4272 17.8911 17.6768C18.6415 16.9105 19.5509 16.3182 20.5551 15.9416C21.5121 15.5693 22.6043 15.3174 24.208 15.2422ZM30.4083 17.863H29.0585V17.8592C26.2553 17.8611 25.7177 17.8799 24.3302 17.9438C22.8638 18.0115 22.0685 18.2559 21.5384 18.4627C20.8353 18.7353 20.3352 19.0605 19.8088 19.5869C19.2824 20.1133 18.9552 20.6153 18.6826 21.3166C18.4758 21.8467 18.2314 22.6439 18.1637 24.1103C18.0923 25.6951 18.0773 26.167 18.0773 30.1846C18.0773 34.2022 18.0923 34.6779 18.1637 36.2627C18.2295 37.7291 18.4758 38.5263 18.6807 39.0546C18.9239 39.7076 19.3092 40.2984 19.8088 40.7842C20.2949 41.2824 20.8857 41.6664 21.5384 41.9084C22.0685 42.1152 22.8638 42.3596 24.3302 42.4273C25.9151 42.4987 26.3926 42.5157 30.4083 42.5157C34.424 42.5157 34.8997 42.4987 36.4845 42.4273C37.9528 42.3596 38.75 42.1152 39.2764 41.9084C39.9795 41.6358 40.4796 41.3106 41.006 40.7842C41.5046 40.2987 41.8893 39.7086 42.1321 39.0564C42.337 38.5263 42.5833 37.731 42.6491 36.2646C42.7224 34.6797 42.7375 34.2022 42.7375 30.1884C42.7375 26.1745 42.7224 25.6989 42.6491 24.114C42.5833 22.6476 42.3389 21.8505 42.1321 21.3222C41.8595 20.6191 41.5343 20.119 41.0079 19.5926C40.4815 19.0662 39.9795 18.7391 39.2782 18.4665C38.7481 18.2615 37.951 18.0152 36.4845 17.9494C34.8997 17.8761 34.424 17.863 30.4083 17.863ZM37.7453 20.497C37.9643 20.4063 38.199 20.3596 38.436 20.3596C38.9147 20.3596 39.3737 20.5498 39.7122 20.8883C40.0507 21.2267 40.2408 21.6858 40.2408 22.1645C40.2408 22.6431 40.0507 23.1022 39.7122 23.4407C39.3737 23.7791 38.9147 23.9693 38.436 23.9693C38.199 23.9693 37.9643 23.9226 37.7453 23.8319C37.5264 23.7412 37.3274 23.6082 37.1598 23.4407C36.9922 23.2731 36.8593 23.0741 36.7686 22.8551C36.6779 22.6362 36.6312 22.4015 36.6312 22.1645C36.6312 21.9274 36.6779 21.6927 36.7686 21.4738C36.8593 21.2548 36.9922 21.0558 37.1598 20.8883C37.3274 20.7207 37.5264 20.5877 37.7453 20.497ZM27.4153 23.022C28.3664 22.641 29.3838 22.453 30.4083 22.469C32.436 22.5007 34.3699 23.3283 35.7926 24.7734C37.2154 26.2186 38.0128 28.1652 38.0128 30.1931C38.0128 32.221 37.2154 34.1676 35.7926 35.6127C34.3699 37.0578 32.436 37.8855 30.4083 37.9171C29.3838 37.9331 28.3664 37.7451 27.4153 37.3642C26.4641 36.9832 25.5983 36.4168 24.8682 35.6979C24.138 34.9791 23.5582 34.1222 23.1624 33.1771C22.7666 32.232 22.5628 31.2177 22.5628 30.1931C22.5628 29.1685 22.7666 28.1541 23.1624 27.209C23.5582 26.264 24.138 25.4071 24.8682 24.6882C25.5983 23.9694 26.4641 23.403 27.4153 23.022ZM32.3271 25.5598C31.7188 25.3078 31.0668 25.1781 30.4083 25.1781C29.0785 25.1781 27.8032 25.7064 26.8629 26.6467C25.9226 27.587 25.3943 28.8623 25.3943 30.1921C25.3943 31.5219 25.9226 32.7973 26.8629 33.7376C27.8032 34.6779 29.0785 35.2062 30.4083 35.2062C31.0668 35.2062 31.7188 35.0765 32.3271 34.8245C32.9354 34.5725 33.4882 34.2032 33.9538 33.7376C34.4193 33.272 34.7887 32.7192 35.0407 32.1109C35.2926 31.5026 35.4223 30.8506 35.4223 30.1921C35.4223 29.5337 35.2926 28.8817 35.0407 28.2734C34.7887 27.665 34.4193 27.1123 33.9538 26.6467C33.4882 26.1811 32.9354 25.8118 32.3271 25.5598Z" fill="#333333"/>
</svg>
