<svg width="60" height="60" viewBox="0 0 60 60" fill="none" xmlns="http://www.w3.org/2000/svg">
<circle cx="30.0281" cy="30.03" r="29.9509" fill="white"/>
<path d="M30.0285 14.9897C25.9469 14.9897 25.4337 15.0085 23.83 15.08C22.2264 15.1552 21.1341 15.4071 20.1772 15.7794C19.1729 16.156 18.2636 16.7483 17.5132 17.5146C16.7469 18.265 16.1545 19.1744 15.7779 20.1786C15.4057 21.1337 15.1519 22.2278 15.0786 23.8258C15.0071 25.4333 14.9883 25.9446 14.9883 30.0318C14.9883 34.1152 15.0071 34.6266 15.0786 36.2302C15.1538 37.832 15.4057 38.9243 15.7779 39.8812C16.1633 40.8701 16.6766 41.7086 17.5132 42.5452C18.3479 43.3818 19.1864 43.8969 20.1753 44.2805C21.1341 44.6527 22.2245 44.9065 23.8263 44.9798C25.4318 45.0513 25.9432 45.0701 30.0285 45.0701C34.1138 45.0701 34.6232 45.0513 36.2288 44.9798C37.8287 44.9046 38.9247 44.6527 39.8817 44.2805C40.8852 43.9036 41.7939 43.3113 42.5438 42.5452C43.3804 41.7086 43.8936 40.8701 44.279 39.8812C44.6494 38.9243 44.9032 37.832 44.9784 36.2302C45.0498 34.6266 45.0686 34.1152 45.0686 30.0299C45.0686 25.9446 45.0498 25.4333 44.9784 23.8277C44.9032 22.2278 44.6494 21.1337 44.279 20.1786C43.9024 19.1744 43.3101 18.265 42.5438 17.5146C41.7934 16.7483 40.884 16.156 39.8798 15.7794C38.921 15.4071 37.8268 15.1533 36.2269 15.08C34.6214 15.0085 34.1119 14.9897 30.0247 14.9897H30.0285ZM28.6805 17.7007H30.0304C34.0461 17.7007 34.5217 17.7139 36.1066 17.7872C37.573 17.853 38.3701 18.0993 38.9003 18.3042C39.6015 18.5768 40.1035 18.9039 40.6299 19.4304C41.1563 19.9568 41.4816 20.4568 41.7542 21.16C41.961 21.6883 42.2054 22.4854 42.2712 23.9518C42.3445 25.5367 42.3595 26.0123 42.3595 30.0261C42.3595 34.04 42.3445 34.5175 42.2712 36.1024C42.2054 37.5688 41.9591 38.364 41.7542 38.8942C41.5113 39.5464 41.1267 40.1365 40.628 40.6219C40.1016 41.1483 39.6015 41.4736 38.8984 41.7462C38.372 41.953 37.5749 42.1974 36.1066 42.2651C34.5217 42.3365 34.0461 42.3534 30.0304 42.3534C26.0146 42.3534 25.5371 42.3365 23.9522 42.2651C22.4858 42.1974 21.6906 41.953 21.1604 41.7462C20.5077 41.5042 19.917 41.1202 19.4308 40.6219C18.9312 40.1361 18.5459 39.5454 18.3028 38.8923C18.0979 38.364 17.8516 37.5669 17.7858 36.1005C17.7143 34.5156 17.6993 34.04 17.6993 30.0224C17.6993 26.0048 17.7143 25.5329 17.7858 23.948C17.8535 22.4816 18.0979 21.6845 18.3047 21.1543C18.5773 20.4531 18.9044 19.9511 19.4308 19.4247C19.9572 18.8983 20.4573 18.5731 21.1604 18.3005C21.6906 18.0937 22.4858 17.8493 23.9522 17.7816C25.3397 17.7177 25.8774 17.6989 28.6805 17.697V17.7007ZM38.058 20.1974C37.821 20.1974 37.5863 20.2441 37.3674 20.3348C37.1484 20.4255 36.9494 20.5584 36.7818 20.726C36.6142 20.8936 36.4813 21.0926 36.3906 21.3115C36.2999 21.5305 36.2532 21.7652 36.2532 22.0022C36.2532 22.2392 36.2999 22.4739 36.3906 22.6929C36.4813 22.9119 36.6142 23.1108 36.7818 23.2784C36.9494 23.446 37.1484 23.579 37.3674 23.6697C37.5863 23.7604 37.821 23.807 38.058 23.807C38.5367 23.807 38.9958 23.6169 39.3342 23.2784C39.6727 22.94 39.8629 22.4809 39.8629 22.0022C39.8629 21.5236 39.6727 21.0645 39.3342 20.726C38.9958 20.3876 38.5367 20.1974 38.058 20.1974ZM30.0304 22.3068C29.0059 22.2908 27.9885 22.4788 27.0373 22.8598C26.0862 23.2408 25.2203 23.8072 24.4902 24.526C23.7601 25.2448 23.1802 26.1017 22.7845 27.0468C22.3887 27.9919 22.1848 29.0062 22.1848 30.0308C22.1848 31.0554 22.3887 32.0698 22.7845 33.0149C23.1802 33.96 23.7601 34.8169 24.4902 35.5357C25.2203 36.2545 26.0862 36.8209 27.0373 37.2019C27.9885 37.5829 29.0059 37.7709 30.0304 37.7549C32.058 37.7233 33.992 36.8956 35.4147 35.4505C36.8374 34.0054 37.6348 32.0588 37.6348 30.0308C37.6348 28.0029 36.8374 26.0563 35.4147 24.6112C33.992 23.1661 32.058 22.3384 30.0304 22.3068ZM30.0304 25.0159C30.6888 25.0159 31.3408 25.1456 31.9491 25.3976C32.5575 25.6495 33.1102 26.0189 33.5758 26.4845C34.0414 26.9501 34.4107 27.5028 34.6627 28.1111C34.9147 28.7195 35.0444 29.3715 35.0444 30.0299C35.0444 30.6884 34.9147 31.3404 34.6627 31.9487C34.4107 32.557 34.0414 33.1098 33.5758 33.5754C33.1102 34.0409 32.5575 34.4103 31.9491 34.6623C31.3408 34.9142 30.6888 35.0439 30.0304 35.0439C28.7006 35.0439 27.4252 34.5157 26.4849 33.5754C25.5446 32.635 25.0163 31.3597 25.0163 30.0299C25.0163 28.7001 25.5446 27.4248 26.4849 26.4845C27.4252 25.5442 28.7006 25.0159 30.0304 25.0159Z" fill="black"/>
</svg>
