<svg width="110" height="144" viewBox="0 0 110 144" fill="none" xmlns="http://www.w3.org/2000/svg">
<path d="M14.4088 143.631C10.6552 143.631 7.44311 142.295 4.7724 139.625C2.1017 136.954 0.764071 133.739 0.759521 129.981V61.735C0.759521 57.9815 2.09715 54.7694 4.7724 52.0986C7.44766 49.4279 10.6598 48.0903 14.4088 48.0858H21.2334V34.4365C21.2334 24.9958 24.5616 16.9495 31.2178 10.2978C37.8741 3.64605 45.9204 0.317909 55.3566 0.313359C64.7927 0.308809 72.8413 3.63695 79.5021 10.2978C86.1629 16.9586 89.4888 25.0049 89.4797 34.4365V48.0858H96.3043C100.058 48.0858 103.272 49.4234 105.948 52.0986C108.623 54.7739 109.958 57.986 109.954 61.735V129.981C109.954 133.735 108.618 136.949 105.948 139.625C103.277 142.3 100.062 143.635 96.3043 143.631H14.4088ZM55.3566 109.507C59.1101 109.507 62.3245 108.172 64.9998 105.501C67.675 102.831 69.0104 99.6163 69.0058 95.8582C69.0013 92.1001 67.6659 88.888 64.9998 86.2218C62.3336 83.5556 59.1192 82.218 55.3566 82.2089C51.5939 82.1998 48.3818 83.5374 45.7202 86.2218C43.0586 88.9062 41.7209 92.1183 41.7073 95.8582C41.6937 99.5981 43.0313 102.812 45.7202 105.501C48.4091 108.19 51.6212 109.526 55.3566 109.507ZM34.8827 48.0858H75.8304V34.4365C75.8304 28.7493 73.8399 23.9152 69.8589 19.9342C65.8779 15.9531 61.0438 13.9626 55.3566 13.9626C49.6694 13.9626 44.8353 15.9531 40.8542 19.9342C36.8732 23.9152 34.8827 28.7493 34.8827 34.4365V48.0858Z" fill="white"/>
</svg>
