<svg width="144" height="144" viewBox="0 0 144 144" fill="none" xmlns="http://www.w3.org/2000/svg">
<path d="M71.9063 0.971924C111.396 0.971924 143.406 32.9825 143.406 72.4719C143.406 91.4349 135.873 109.621 122.464 123.03C109.056 136.439 90.8693 143.972 71.9063 143.972C52.9433 143.972 34.757 136.439 21.3481 123.03C7.93927 109.621 0.40625 91.4349 0.40625 72.4719L0.43485 70.4699C1.49305 31.91 33.0818 0.971924 71.9063 0.971924ZM93.3563 87.63C91.46 87.63 89.6414 88.3833 88.3005 89.7241C86.9596 91.065 86.2063 92.8837 86.2063 94.78V94.8872C86.2063 96.7835 86.9596 98.6021 88.3005 99.943C89.6414 101.284 91.46 102.037 93.3563 102.037C95.2526 102.037 97.0712 101.284 98.4121 99.943C99.753 98.6021 100.506 96.7835 100.506 94.8872V94.78C100.506 92.8837 99.753 91.065 98.4121 89.7241C97.0712 88.3833 95.2526 87.63 93.3563 87.63ZM98.4113 46.5031C97.0705 45.1627 95.2522 44.4097 93.3563 44.4097C91.4604 44.4097 89.6421 45.1627 88.3012 46.5031L45.4012 89.4032C44.0988 90.7517 43.3781 92.5578 43.3944 94.4325C43.4107 96.3072 44.1626 98.1005 45.4883 99.4262C46.814 100.752 48.6073 101.504 50.482 101.52C52.3567 101.536 54.1628 100.816 55.5113 99.5133L98.4113 56.6132C99.7518 55.2724 100.505 53.4541 100.505 51.5582C100.505 49.6623 99.7518 47.844 98.4113 46.5031ZM50.4563 44.6227C48.56 44.6227 46.7413 45.376 45.4005 46.7169C44.0596 48.0578 43.3063 49.8764 43.3063 51.7727V51.8799C43.3063 53.7762 44.0596 55.5949 45.4005 56.9358C46.7413 58.2766 48.56 59.0299 50.4563 59.0299C52.3526 59.0299 54.1712 58.2766 55.5121 56.9358C56.853 55.5949 57.6063 53.7762 57.6063 51.8799V51.7727C57.6063 49.8764 56.853 48.0578 55.5121 46.7169C54.1712 45.376 52.3526 44.6227 50.4563 44.6227Z" fill="white"/>
</svg>
