<svg width="112" height="151" viewBox="0 0 112 151" fill="none" xmlns="http://www.w3.org/2000/svg">
<path d="M21.2314 7.10767V14.0083C21.2314 17.6686 22.6963 21.179 25.3039 23.7673C27.9114 26.3555 31.448 27.8096 35.1357 27.8096H76.8484C80.5361 27.8096 84.0727 26.3555 86.6802 23.7673C89.2878 21.179 90.7527 17.6686 90.7527 14.0083V7.10767H97.7048C101.392 7.10767 104.929 8.56172 107.537 11.15C110.144 13.7382 111.609 17.2486 111.609 20.9089V96.8159C111.609 107.797 107.214 118.328 99.3917 126.093C91.569 133.858 80.9592 138.22 69.8963 138.22H14.2793C10.5916 138.22 7.05502 136.766 4.44746 134.177C1.83991 131.589 0.375 128.079 0.375 124.418V20.9089C0.375 17.2486 1.83991 13.7382 4.44746 11.15C7.05502 8.56172 10.5916 7.10767 14.2793 7.10767H21.2314ZM55.9921 83.0146H35.1357C33.2918 83.0146 31.5235 83.7417 30.2198 85.0358C28.916 86.3299 28.1835 88.0851 28.1835 89.9153C28.1835 91.7454 28.916 93.5006 30.2198 94.7948C31.5235 96.0889 33.2918 96.8159 35.1357 96.8159H55.9921C57.8359 96.8159 59.6042 96.0889 60.9079 94.7948C62.2117 93.5006 62.9442 91.7454 62.9442 89.9153C62.9442 88.0851 62.2117 86.3299 60.9079 85.0358C59.6042 83.7417 57.8359 83.0146 55.9921 83.0146ZM76.8484 55.4121H35.1357C33.3637 55.4141 31.6594 56.0875 30.3709 57.2949C29.0824 58.5023 28.307 60.1525 28.2032 61.9083C28.0993 63.6641 28.6749 65.393 29.8122 66.7418C30.9495 68.0905 32.5627 68.9573 34.3223 69.1651L35.1357 69.2134H76.8484C78.6923 69.2134 80.4606 68.4863 81.7643 67.1922C83.0681 65.8981 83.8006 64.1429 83.8006 62.3127C83.8006 60.4826 83.0681 58.7274 81.7643 57.4333C80.4606 56.1391 78.6923 55.4121 76.8484 55.4121ZM69.8963 0.207031C71.6683 0.208982 73.3726 0.882459 74.6611 2.08986C75.9496 3.29726 76.7249 4.94744 76.8288 6.70325C76.9326 8.45906 76.3571 10.188 75.2198 11.5367C74.0825 12.8855 72.4693 13.7523 70.7097 13.96L69.8963 14.0083H42.0878C40.3158 14.0063 38.6115 13.3329 37.323 12.1255C36.0345 10.9181 35.2592 9.26789 35.1553 7.51208C35.0515 5.75627 35.627 4.02736 36.7643 2.67861C37.9016 1.32986 39.5148 0.46307 41.2744 0.255335L42.0878 0.207031H69.8963Z" fill="white"/>
</svg>
