<svg width="62" height="63" viewBox="0 0 62 63" fill="none" xmlns="http://www.w3.org/2000/svg">
<g clip-path="url(#clip0_71_184)">
<path d="M30.9927 62.0781C22.9036 62.0781 15.1458 58.8121 9.42592 52.9984C3.70606 47.1848 0.492676 39.2998 0.492676 31.0781C0.492676 22.8564 3.70606 14.9714 9.42592 9.15781C15.1458 3.34419 22.9036 0.078125 30.9927 0.078125C39.0818 0.078125 46.8396 3.34419 52.5594 9.15781C58.2793 14.9714 61.4927 22.8564 61.4927 31.0781C61.4927 39.2998 58.2793 47.1848 52.5594 52.9984C46.8396 58.8121 39.0818 62.0781 30.9927 62.0781ZM34.2219 30.5163C36.3349 29.7436 38.112 28.2379 39.2403 26.2644C40.3685 24.2909 40.7755 21.9761 40.3897 19.7276C40.0038 17.4791 38.8499 15.441 37.1309 13.9722C35.412 12.5035 33.2383 11.6982 30.9927 11.6982C28.747 11.6982 26.5734 12.5035 24.8544 13.9722C23.1355 15.441 21.9815 17.4791 21.5957 19.7276C21.2098 21.9761 21.6168 24.2909 22.7451 26.2644C23.8733 28.2379 25.6504 29.7436 27.7635 30.5163C21.3509 32.0895 15.7427 37.9562 15.7427 42.7031C15.7427 44.2337 16.2955 46.5588 19.5552 46.5588H42.4302C45.6899 46.5588 46.2427 44.2337 46.2427 42.7031C46.2427 37.9601 40.6383 32.0856 34.2219 30.5163Z" fill="#24ACE7"/>
</g>
<defs>
<clipPath id="clip0_71_184">
<rect width="61" height="62" fill="white" transform="translate(0.492676 0.078125)"/>
</clipPath>
</defs>
</svg>
